0, 0, Header, 1, 1, 120
1, 0, Start_track
1, 15, Note_on_c, 0, 48, 0
1, 15, Note_on_c, 0, 44, 100
1, 15, Note_on_c, 0, 72, 0
1, 15, Note_on_c, 0, 71, 115
1, 15, Note_on_c, 0, 60, 0
1, 15, Note_on_c, 0, 76, 0
1, 15, Note_on_c, 0, 88, 0
1, 15, Note_on_c, 0, 80, 100
1, 15, Note_on_c, 0, 76, 100
1, 15, Note_on_c, 0, 68, 100
1, 15, Note_on_c, 0, 76, 0
1, 15, Note_on_c, 0, 79, 0
1, 15, Note_on_c, 0, 67, 0
1, 15, Note_on_c, 0, 71, 100
1, 15, Note_on_c, 0, 80, 100
1, 15, Note_on_c, 0, 36, 0
1, 15, Note_on_c, 0, 48, 0
1, 15, Note_on_c, 0, 47, 100
1, 15, Note_on_c, 0, 35, 100
1, 15, Note_on_c, 0, 36, 100
1, 15, Note_on_c, 0, 40, 0
1, 46, Note_on_c, 0, 45, 0
1, 46, Note_on_c, 0, 57, 100
1, 46, Note_on_c, 0, 72, 0
1, 46, Note_on_c, 0, 81, 0
1, 46, Note_on_c, 0, 36, 0
1, 46, Note_on_c, 0, 40, 100
1, 61, Note_on_c, 0, 52, 0
1, 61, Note_on_c, 0, 45, 100
1, 61, Note_on_c, 0, 76, 0
1, 61, Note_on_c, 0, 72, 115
1, 61, Note_on_c, 0, 76, 0
1, 61, Note_on_c, 0, 71, 0
1, 61, Note_on_c, 0, 64, 0
1, 61, Note_on_c, 0, 81, 100
1, 61, Note_on_c, 0, 76, 100
1, 61, Note_on_c, 0, 69, 100
1, 61, Note_on_c, 0, 76, 0
1, 61, Note_on_c, 0, 83, 0
1, 61, Note_on_c, 0, 71, 0
1, 61, Note_on_c, 0, 72, 100
1, 61, Note_on_c, 0, 81, 100
1, 61, Note_on_c, 0, 28, 0
1, 61, Note_on_c, 0, 40, 0
1, 61, Note_on_c, 0, 33, 100
1, 61, Note_on_c, 0, 45, 100
1, 61, Note_on_c, 0, 36, 100
1, 61, Note_on_c, 0, 40, 0
1, 121, Note_on_c, 0, 33, 0
1, 121, Note_on_c, 0, 45, 0
1, 121, Note_on_c, 0, 28, 100
1, 121, Note_on_c, 0, 40, 100
1, 121, Note_on_c, 0, 57, 0
1, 121, Note_on_c, 0, 56, 115
1, 121, Note_on_c, 0, 59, 100
1, 121, Note_on_c, 0, 52, 100
1, 121, Note_on_c, 0, 71, 100
1, 121, Note_on_c, 0, 72, 0
1, 121, Note_on_c, 0, 64, 0
1, 121, Note_on_c, 0, 64, 100
1, 121, Note_on_c, 0, 76, 100
1, 121, Note_on_c, 0, 57, 0
1, 121, Note_on_c, 0, 52, 0
1, 121, Note_on_c, 0, 45, 0
1, 121, Note_on_c, 0, 52, 100
1, 121, Note_on_c, 0, 56, 100
1, 121, Note_on_c, 0, 40, 100
1, 121, Note_on_c, 0, 33, 0
1, 121, Note_on_c, 0, 45, 0
1, 121, Note_on_c, 0, 40, 100
1, 121, Note_on_c, 0, 28, 100
1, 121, Note_on_c, 0, 35, 0
1, 121, Note_on_c, 0, 35, 100
1, 181, Note_on_c, 0, 50, 0
1, 181, Note_on_c, 0, 38, 100
1, 181, Note_on_c, 0, 77, 0
1, 181, Note_on_c, 0, 81, 115
1, 181, Note_on_c, 0, 69, 0
1, 181, Note_on_c, 0, 74, 0
1, 181, Note_on_c, 0, 77, 100
1, 181, Note_on_c, 0, 86, 100
1, 181, Note_on_c, 0, 74, 0
1, 181, Note_on_c, 0, 65, 0
1, 181, Note_on_c, 0, 65, 100
1, 181, Note_on_c, 0, 74, 100
1, 181, Note_on_c, 0, 74, 0
1, 181, Note_on_c, 0, 69, 100
1, 181, Note_on_c, 0, 77, 100
1, 181, Note_on_c, 0, 38, 0
1, 181, Note_on_c, 0, 50, 0
1, 181, Note_on_c, 0, 50, 100
1, 181, Note_on_c, 0, 38, 100
1, 181, Note_on_c, 0, 36, 0
1, 181, Note_on_c, 0, 36, 100
1, 212, Note_on_c, 0, 52, 0
1, 212, Note_on_c, 0, 40, 100
1, 212, Note_on_c, 0, 74, 0
1, 212, Note_on_c, 0, 72, 115
1, 212, Note_on_c, 0, 28, 0
1, 212, Note_on_c, 0, 40, 0
1, 212, Note_on_c, 0, 40, 100
1, 212, Note_on_c, 0, 28, 100
1, 212, Note_on_c, 0, 38, 100
1, 242, Note_on_c, 0, 38, 0
1, 242, Note_on_c, 0, 50, 100
1, 242, Note_on_c, 0, 38, 0
1, 242, Note_on_c, 0, 44, 0
1, 242, Note_on_c, 0, 44, 90
1, 272, Note_on_c, 0, 38, 0
1, 272, Note_on_c, 0, 50, 100
1, 272, Note_on_c, 0, 38, 0
1, 272, Note_on_c, 0, 44, 0
1, 272, Note_on_c, 0, 44, 90
1, 332, Note_on_c, 0, 57, 0
1, 332, Note_on_c, 0, 45, 100
1, 332, Note_on_c, 0, 72, 0
1, 332, Note_on_c, 0, 69, 115
1, 332, Note_on_c, 0, 72, 0
1, 332, Note_on_c, 0, 81, 0
1, 332, Note_on_c, 0, 76, 0
1, 332, Note_on_c, 0, 36, 0
1, 332, Note_on_c, 0, 40, 100
1, 377, Note_on_c, 0, 45, 0
1, 377, Note_on_c, 0, 41, 100
1, 377, Note_on_c, 0, 74, 0
1, 377, Note_on_c, 0, 72, 115
1, 377, Note_on_c, 0, 38, 100
1, 408, Note_on_c, 0, 57, 0
1, 408, Note_on_c, 0, 45, 100
1, 408, Note_on_c, 0, 72, 0
1, 408, Note_on_c, 0, 69, 115
1, 408, Note_on_c, 0, 72, 0
1, 408, Note_on_c, 0, 81, 0
1, 408, Note_on_c, 0, 76, 0
1, 408, Note_on_c, 0, 36, 0
1, 408, Note_on_c, 0, 40, 100
1, 438, Note_on_c, 0, 52, 0
1, 438, Note_on_c, 0, 40, 100
1, 438, Note_on_c, 0, 74, 0
1, 438, Note_on_c, 0, 76, 115
1, 438, Note_on_c, 0, 71, 0
1, 438, Note_on_c, 0, 76, 100
1, 438, Note_on_c, 0, 35, 0
1, 438, Note_on_c, 0, 35, 100
1, 438, Note_on_c, 0, 38, 100
1, 438, Note_on_c, 0, 44, 0
1, 438, Note_on_c, 0, 42, 90
1, 468, Note_on_c, 0, 36, 0
1, 468, Note_on_c, 0, 48, 100
1, 468, Note_on_c, 0, 76, 0
1, 468, Note_on_c, 0, 72, 115
1, 468, Note_on_c, 0, 44, 0
1, 468, Note_on_c, 0, 44, 90
1, 498, Note_on_c, 0, 40, 0
1, 498, Note_on_c, 0, 52, 100
1, 498, Note_on_c, 0, 38, 0
1, 498, Note_on_c, 0, 44, 0
1, 498, Note_on_c, 0, 44, 90
1, 618, Note_on_c, 0, 76, 0
1, 618, Note_on_c, 0, 72, 100
1, 618, Note_on_c, 0, 76, 0
1, 618, Note_on_c, 0, 72, 0
1, 618, Note_on_c, 0, 72, 100
1, 618, Note_on_c, 0, 35, 0
1, 618, Note_on_c, 0, 35, 100
1, 648, Note_on_c, 0, 41, 0
1, 648, Note_on_c, 0, 44, 100
1, 648, Note_on_c, 0, 72, 0
1, 648, Note_on_c, 0, 71, 115
1, 648, Note_on_c, 0, 81, 0
1, 648, Note_on_c, 0, 72, 0
1, 648, Note_on_c, 0, 57, 0
1, 648, Note_on_c, 0, 68, 100
1, 648, Note_on_c, 0, 64, 100
1, 648, Note_on_c, 0, 56, 100
1, 648, Note_on_c, 0, 69, 0
1, 648, Note_on_c, 0, 68, 100
1, 648, Note_on_c, 0, 33, 0
1, 648, Note_on_c, 0, 45, 0
1, 648, Note_on_c, 0, 44, 100
1, 648, Note_on_c, 0, 32, 100
1, 648, Note_on_c, 0, 35, 0
1, 648, Note_on_c, 0, 35, 100
1, 648, Note_on_c, 0, 38, 0
1, 648, Note_on_c, 0, 44, 0
1, 648, Note_on_c, 0, 42, 90
1, 678, Note_on_c, 0, 38, 0
1, 678, Note_on_c, 0, 50, 100
1, 678, Note_on_c, 0, 38, 0
1, 678, Note_on_c, 0, 44, 0
1, 678, Note_on_c, 0, 44, 90
1, 708, Note_on_c, 0, 38, 0
1, 708, Note_on_c, 0, 50, 100
1, 708, Note_on_c, 0, 38, 0
1, 708, Note_on_c, 0, 44, 0
1, 708, Note_on_c, 0, 44, 90
1, 723, Note_on_c, 0, 38, 0
1, 723, Note_on_c, 0, 40, 127
1, 843, Note_on_c, 0, 76, 0
1, 843, Note_on_c, 0, 72, 100
1, 843, Note_on_c, 0, 76, 0
1, 843, Note_on_c, 0, 72, 0
1, 843, Note_on_c, 0, 72, 100
1, 843, Note_on_c, 0, 35, 0
1, 843, Note_on_c, 0, 35, 100
1, 873, Note_on_c, 0, 33, 0
1, 873, Note_on_c, 0, 45, 0
1, 873, Note_on_c, 0, 45, 100
1, 873, Note_on_c, 0, 33, 100
1, 873, Note_on_c, 0, 33, 0
1, 873, Note_on_c, 0, 45, 0
1, 873, Note_on_c, 0, 45, 100
1, 873, Note_on_c, 0, 33, 100
1, 873, Note_on_c, 0, 35, 0
1, 873, Note_on_c, 0, 35, 100
1, 873, Note_on_c, 0, 40, 100
1, 873, Note_on_c, 0, 44, 0
1, 873, Note_on_c, 0, 42, 90
1, 903, Note_on_c, 0, 33, 0
1, 903, Note_on_c, 0, 45, 0
1, 903, Note_on_c, 0, 45, 100
1, 903, Note_on_c, 0, 33, 100
1, 903, Note_on_c, 0, 33, 0
1, 903, Note_on_c, 0, 45, 0
1, 903, Note_on_c, 0, 45, 100
1, 903, Note_on_c, 0, 33, 100
1, 903, Note_on_c, 0, 35, 0
1, 903, Note_on_c, 0, 35, 100
1, 903, Note_on_c, 0, 40, 100
1, 903, Note_on_c, 0, 44, 0
1, 903, Note_on_c, 0, 42, 90
1, 933, Note_on_c, 0, 36, 0
1, 933, Note_on_c, 0, 48, 100
1, 933, Note_on_c, 0, 44, 0
1, 933, Note_on_c, 0, 44, 90
1, 948, Note_on_c, 0, 40, 0
1, 978, Note_on_c, 0, 45, 0
1, 978, Note_on_c, 0, 44, 100
1, 978, Note_on_c, 0, 33, 0
1, 978, Note_on_c, 0, 45, 0
1, 978, Note_on_c, 0, 44, 100
1, 978, Note_on_c, 0, 32, 100
1, 978, Note_on_c, 0, 35, 0
1, 978, Note_on_c, 0, 35, 100
1, 978, Note_on_c, 0, 38, 0
1, 978, Note_on_c, 0, 38, 100
1, 978, Note_on_c, 0, 44, 0
1, 978, Note_on_c, 0, 44, 90
1, 1008, Note_on_c, 0, 40, 0
1, 1008, Note_on_c, 0, 28, 0
1, 1008, Note_on_c, 0, 45, 100
1, 1008, Note_on_c, 0, 33, 100
1, 1008, Note_on_c, 0, 71, 0
1, 1008, Note_on_c, 0, 68, 0
1, 1008, Note_on_c, 0, 72, 100
1, 1008, Note_on_c, 0, 69, 100
1, 1008, Note_on_c, 0, 64, 100
1, 1008, Note_on_c, 0, 71, 0
1, 1008, Note_on_c, 0, 80, 0
1, 1008, Note_on_c, 0, 72, 100
1, 1008, Note_on_c, 0, 81, 100
1, 1008, Note_on_c, 0, 59, 0
1, 1008, Note_on_c, 0, 56, 0
1, 1008, Note_on_c, 0, 40, 0
1, 1008, Note_on_c, 0, 60, 100
1, 1008, Note_on_c, 0, 57, 100
1, 1008, Note_on_c, 0, 52, 100
1, 1008, Note_on_c, 0, 45, 100
1, 1008, Note_on_c, 0, 28, 0
1, 1008, Note_on_c, 0, 40, 0
1, 1008, Note_on_c, 0, 45, 100
1, 1008, Note_on_c, 0, 33, 100
1, 1008, Note_on_c, 0, 35, 0
1, 1008, Note_on_c, 0, 35, 100
1, 1008, Note_on_c, 0, 44, 0
1, 1008, Note_on_c, 0, 42, 90
1, 1068, Note_on_c, 0, 88, 0
1, 1068, Note_on_c, 0, 76, 0
1, 1068, Note_on_c, 0, 80, 0
1, 1068, Note_on_c, 0, 83, 0
1, 1068, Note_on_c, 0, 88, 0
1, 1068, Note_on_c, 0, 76, 0
1, 1068, Note_on_c, 0, 80, 0
1, 1068, Note_on_c, 0, 83, 0
1, 1068, Note_on_c, 0, 28, 0
1, 1068, Note_on_c, 0, 40, 0
1, 1068, Note_on_c, 0, 35, 0
1, 1068, Note_on_c, 0, 35, 100
1, 1128, Note_on_c, 0, 40, 0
1, 1128, Note_on_c, 0, 28, 0
1, 1128, Note_on_c, 0, 28, 100
1, 1128, Note_on_c, 0, 40, 100
1, 1128, Note_on_c, 0, 28, 0
1, 1128, Note_on_c, 0, 40, 0
1, 1128, Note_on_c, 0, 40, 100
1, 1128, Note_on_c, 0, 28, 100
1, 1128, Note_on_c, 0, 35, 0
1, 1128, Note_on_c, 0, 35, 100
1, 1188, Note_on_c, 0, 52, 0
1, 1188, Note_on_c, 0, 40, 100
1, 1188, Note_on_c, 0, 72, 0
1, 1188, Note_on_c, 0, 74, 115
1, 1188, Note_on_c, 0, 59, 0
1, 1188, Note_on_c, 0, 64, 0
1, 1188, Note_on_c, 0, 71, 100
1, 1188, Note_on_c, 0, 76, 100
1, 1188, Note_on_c, 0, 71, 0
1, 1188, Note_on_c, 0, 76, 0
1, 1188, Note_on_c, 0, 76, 100
1, 1188, Note_on_c, 0, 71, 100
1, 1188, Note_on_c, 0, 28, 0
1, 1188, Note_on_c, 0, 40, 0
1, 1188, Note_on_c, 0, 40, 100
1, 1188, Note_on_c, 0, 28, 100
1, 1188, Note_on_c, 0, 36, 0
1, 1188, Note_on_c, 0, 36, 100
1, 1248, Note_on_c, 0, 36, 0
1, 1248, Note_on_c, 0, 48, 100
1, 1248, Note_on_c, 0, 72, 100
1, 1248, Note_on_c, 0, 64, 100
1, 1278, Note_on_c, 0, 52, 0
1, 1278, Note_on_c, 0, 40, 100
1, 1278, Note_on_c, 0, 74, 0
1, 1278, Note_on_c, 0, 76, 115
1, 1278, Note_on_c, 0, 71, 0
1, 1278, Note_on_c, 0, 76, 100
1, 1278, Note_on_c, 0, 35, 0
1, 1278, Note_on_c, 0, 35, 100
1, 1278, Note_on_c, 0, 38, 100
1, 1278, Note_on_c, 0, 44, 0
1, 1278, Note_on_c, 0, 42, 90
1, 1338, Note_on_c, 0, 88, 0
1, 1338, Note_on_c, 0, 76, 0
1, 1338, Note_on_c, 0, 80, 0
1, 1338, Note_on_c, 0, 83, 0
1, 1338, Note_on_c, 0, 88, 0
1, 1338, Note_on_c, 0, 76, 0
1, 1338, Note_on_c, 0, 80, 0
1, 1338, Note_on_c, 0, 83, 0
1, 1338, Note_on_c, 0, 28, 0
1, 1338, Note_on_c, 0, 40, 0
1, 1338, Note_on_c, 0, 35, 0
1, 1338, Note_on_c, 0, 35, 100
1, 1368, Note_on_c, 0, 45, 0
1, 1368, Note_on_c, 0, 44, 100
1, 1368, Note_on_c, 0, 33, 0
1, 1368, Note_on_c, 0, 45, 0
1, 1368, Note_on_c, 0, 44, 100
1, 1368, Note_on_c, 0, 32, 100
1, 1368, Note_on_c, 0, 35, 0
1, 1368, Note_on_c, 0, 35, 100
1, 1368, Note_on_c, 0, 38, 0
1, 1368, Note_on_c, 0, 38, 100
1, 1368, Note_on_c, 0, 44, 0
1, 1368, Note_on_c, 0, 44, 90
1, 1428, Note_on_c, 0, 40, 0
1, 1428, Note_on_c, 0, 28, 0
1, 1428, Note_on_c, 0, 28, 100
1, 1428, Note_on_c, 0, 40, 100
1, 1428, Note_on_c, 0, 28, 0
1, 1428, Note_on_c, 0, 40, 0
1, 1428, Note_on_c, 0, 40, 100
1, 1428, Note_on_c, 0, 28, 100
1, 1428, Note_on_c, 0, 35, 0
1, 1428, Note_on_c, 0, 35, 100
1, 1458, Note_on_c, 0, 40, 0
1, 1458, Note_on_c, 0, 52, 0
1, 1458, Note_on_c, 0, 40, 100
1, 1458, Note_on_c, 0, 52, 100
1, 1458, Note_on_c, 0, 35, 0
1, 1458, Note_on_c, 0, 35, 100
1, 1458, Note_on_c, 0, 40, 0
1, 1458, Note_on_c, 0, 44, 0
1, 1458, Note_on_c, 0, 42, 90
1, 1488, Note_on_c, 0, 52, 0
1, 1488, Note_on_c, 0, 40, 100
1, 1488, Note_on_c, 0, 74, 0
1, 1488, Note_on_c, 0, 76, 115
1, 1488, Note_on_c, 0, 71, 0
1, 1488, Note_on_c, 0, 76, 100
1, 1488, Note_on_c, 0, 35, 0
1, 1488, Note_on_c, 0, 35, 100
1, 1488, Note_on_c, 0, 38, 100
1, 1488, Note_on_c, 0, 44, 0
1, 1488, Note_on_c, 0, 42, 90
1, 1608, Note_on_c, 0, 76, 0
1, 1608, Note_on_c, 0, 72, 100
1, 1608, Note_on_c, 0, 76, 0
1, 1608, Note_on_c, 0, 72, 0
1, 1608, Note_on_c, 0, 72, 100
1, 1608, Note_on_c, 0, 35, 0
1, 1608, Note_on_c, 0, 35, 100
1, 1638, Note_on_c, 0, 36, 0
1, 1638, Note_on_c, 0, 48, 100
1, 1638, Note_on_c, 0, 76, 0
1, 1638, Note_on_c, 0, 72, 115
1, 1638, Note_on_c, 0, 44, 0
1, 1638, Note_on_c, 0, 44, 90
1, 1668, Note_on_c, 0, 57, 0
1, 1668, Note_on_c, 0, 45, 100
1, 1668, Note_on_c, 0, 76, 0
1, 1668, Note_on_c, 0, 81, 100
1, 1668, Note_on_c, 0, 33, 0
1, 1668, Note_on_c, 0, 45, 0
1, 1668, Note_on_c, 0, 45, 100
1, 1668, Note_on_c, 0, 33, 100
1, 1668, Note_on_c, 0, 35, 0
1, 1668, Note_on_c, 0, 35, 100
1, 1668, Note_on_c, 0, 38, 100
1, 1668, Note_on_c, 0, 44, 0
1, 1668, Note_on_c, 0, 42, 90
1, 1698, Note_on_c, 0, 52, 0
1, 1698, Note_on_c, 0, 40, 100
1, 1698, Note_on_c, 0, 74, 0
1, 1698, Note_on_c, 0, 72, 115
1, 1698, Note_on_c, 0, 28, 0
1, 1698, Note_on_c, 0, 40, 0
1, 1698, Note_on_c, 0, 40, 100
1, 1698, Note_on_c, 0, 28, 100
1, 1698, Note_on_c, 0, 35, 0
1, 1698, Note_on_c, 0, 35, 100
1, 1698, Note_on_c, 0, 38, 100
1, 1698, Note_on_c, 0, 44, 0
1, 1698, Note_on_c, 0, 42, 90
1, 1728, Note_on_c, 0, 57, 0
1, 1728, Note_on_c, 0, 45, 100
1, 1728, Note_on_c, 0, 76, 0
1, 1728, Note_on_c, 0, 81, 100
1, 1728, Note_on_c, 0, 33, 0
1, 1728, Note_on_c, 0, 45, 0
1, 1728, Note_on_c, 0, 45, 100
1, 1728, Note_on_c, 0, 33, 100
1, 1728, Note_on_c, 0, 35, 0
1, 1728, Note_on_c, 0, 35, 100
1, 1728, Note_on_c, 0, 38, 100
1, 1728, Note_on_c, 0, 44, 0
1, 1728, Note_on_c, 0, 42, 90
1, 1758, Note_on_c, 0, 57, 0
1, 1758, Note_on_c, 0, 45, 100
1, 1758, Note_on_c, 0, 76, 0
1, 1758, Note_on_c, 0, 81, 100
1, 1758, Note_on_c, 0, 33, 0
1, 1758, Note_on_c, 0, 45, 0
1, 1758, Note_on_c, 0, 45, 100
1, 1758, Note_on_c, 0, 33, 100
1, 1758, Note_on_c, 0, 35, 0
1, 1758, Note_on_c, 0, 35, 100
1, 1758, Note_on_c, 0, 38, 100
1, 1758, Note_on_c, 0, 44, 0
1, 1758, Note_on_c, 0, 42, 90
1, 1788, Note_on_c, 0, 57, 0
1, 1788, Note_on_c, 0, 45, 100
1, 1788, Note_on_c, 0, 76, 0
1, 1788, Note_on_c, 0, 81, 100
1, 1788, Note_on_c, 0, 33, 0
1, 1788, Note_on_c, 0, 45, 0
1, 1788, Note_on_c, 0, 45, 100
1, 1788, Note_on_c, 0, 33, 100
1, 1788, Note_on_c, 0, 35, 0
1, 1788, Note_on_c, 0, 35, 100
1, 1788, Note_on_c, 0, 38, 100
1, 1788, Note_on_c, 0, 44, 0
1, 1788, Note_on_c, 0, 42, 90
1, 1818, Note_on_c, 0, 52, 0
1, 1818, Note_on_c, 0, 40, 100
1, 1818, Note_on_c, 0, 72, 0
1, 1818, Note_on_c, 0, 74, 115
1, 1818, Note_on_c, 0, 35, 0
1, 1818, Note_on_c, 0, 35, 100
1, 1818, Note_on_c, 0, 38, 0
1, 1818, Note_on_c, 0, 44, 0
1, 1818, Note_on_c, 0, 42, 90
1, 1848, Note_on_c, 0, 68, 0
1, 1848, Note_on_c, 0, 71, 100
1, 1848, Note_on_c, 0, 38, 100
1, 1848, Note_on_c, 0, 44, 0
1, 1848, Note_on_c, 0, 44, 90
1, 1908, Note_on_c, 0, 33, 0
1, 1908, Note_on_c, 0, 45, 0
1, 1908, Note_on_c, 0, 45, 100
1, 1908, Note_on_c, 0, 33, 100
1, 1908, Note_on_c, 0, 33, 0
1, 1908, Note_on_c, 0, 45, 0
1, 1908, Note_on_c, 0, 45, 100
1, 1908, Note_on_c, 0, 33, 100
1, 1908, Note_on_c, 0, 35, 0
1, 1908, Note_on_c, 0, 35, 100
1, 1968, Note_on_c, 0, 80, 0
1, 1968, Note_on_c, 0, 71, 0
1, 1968, Note_on_c, 0, 74, 0
1, 1968, Note_on_c, 0, 76, 0
1, 1968, Note_on_c, 0, 74, 100
1, 1968, Note_on_c, 0, 76, 100
1, 1968, Note_on_c, 0, 80, 100
1, 1968, Note_on_c, 0, 83, 100
1, 1968, Note_on_c, 0, 80, 0
1, 1968, Note_on_c, 0, 71, 0
1, 1968, Note_on_c, 0, 74, 0
1, 1968, Note_on_c, 0, 76, 0
1, 1968, Note_on_c, 0, 74, 100
1, 1968, Note_on_c, 0, 76, 100
1, 1968, Note_on_c, 0, 80, 100
1, 1968, Note_on_c, 0, 83, 100
1, 1968, Note_on_c, 0, 28, 0
1, 1968, Note_on_c, 0, 40, 0
1, 1968, Note_on_c, 0, 40, 100
1, 1968, Note_on_c, 0, 28, 100
1, 1968, Note_on_c, 0, 35, 0
1, 1968, Note_on_c, 0, 35, 100
1, 2358, Note_on_c, 0, 38, 90
1, 2748, Note_on_c, 0, 38, 90
1, 2778, Note_on_c, 0, 57, 0
1, 2778, Note_on_c, 0, 45, 100
1, 2778, Note_on_c, 0, 76, 0
1, 2778, Note_on_c, 0, 74, 115
1, 2778, Note_on_c, 0, 33, 0
1, 2778, Note_on_c, 0, 45, 0
1, 2778, Note_on_c, 0, 45, 100
1, 2778, Note_on_c, 0, 33, 100
1, 2778, Note_on_c, 0, 35, 0
1, 2778, Note_on_c, 0, 35, 100
1, 2778, Note_on_c, 0, 38, 100
1, 2778, Note_on_c, 0, 44, 0
1, 2778, Note_on_c, 0, 42, 90
1, 2793, Note_on_c, 0, 40, 0
1, 2793, Note_on_c, 0, 40, 0
1, 2793, Note_on_c, 0, 40, 100
1, 2813, Note_on_c, 0, 77, 0
1, 2813, Note_on_c, 0, 79, 115
1, 2933, Note_on_c, 0, 68, 0
1, 2933, Note_on_c, 0, 35, 0
1, 2933, Note_on_c, 0, 35, 100
1, 2963, Note_on_c, 0, 40, 100
1, 2963, Note_on_c, 0, 42, 0
1, 2963, Note_on_c, 0, 44, 90
1, 3008, Note_on_c, 0, 57, 0
1, 3008, Note_on_c, 0, 35, 100
1, 3008, Note_on_c, 0, 33, 0
1, 3008, Note_on_c, 0, 45, 0
1, 3008, Note_on_c, 0, 47, 100
1, 3008, Note_on_c, 0, 35, 100
1, 3008, Note_on_c, 0, 38, 100
1, 3008, Note_on_c, 0, 85, 127
1, 3038, Note_on_c, 0, 68, 0
1, 3038, Note_on_c, 0, 71, 100
1, 3038, Note_on_c, 0, 38, 100
1, 3038, Note_on_c, 0, 44, 0
1, 3038, Note_on_c, 0, 44, 90
1, 3158, Note_on_c, 0, 76, 0
1, 3158, Note_on_c, 0, 72, 100
1, 3158, Note_on_c, 0, 76, 0
1, 3158, Note_on_c, 0, 72, 0
1, 3158, Note_on_c, 0, 72, 100
1, 3158, Note_on_c, 0, 35, 0
1, 3158, Note_on_c, 0, 35, 100
1, 3218, Note_on_c, 0, 44, 0
1, 3218, Note_on_c, 0, 56, 100
1, 3218, Note_on_c, 0, 80, 100
1, 3218, Note_on_c, 0, 71, 100
1, 3218, Note_on_c, 0, 76, 100
1, 3218, Note_on_c, 0, 59, 65
1, 3248, Note_on_c, 0, 36, 0
1, 3248, Note_on_c, 0, 48, 100
1, 3248, Note_on_c, 0, 76, 0
1, 3248, Note_on_c, 0, 72, 115
1, 3248, Note_on_c, 0, 44, 0
1, 3248, Note_on_c, 0, 44, 90
1, 3278, Note_on_c, 0, 57, 0
1, 3278, Note_on_c, 0, 45, 100
1, 3278, Note_on_c, 0, 76, 0
1, 3278, Note_on_c, 0, 81, 100
1, 3278, Note_on_c, 0, 33, 0
1, 3278, Note_on_c, 0, 45, 0
1, 3278, Note_on_c, 0, 45, 100
1, 3278, Note_on_c, 0, 33, 100
1, 3278, Note_on_c, 0, 35, 0
1, 3278, Note_on_c, 0, 35, 100
1, 3278, Note_on_c, 0, 38, 100
1, 3278, Note_on_c, 0, 44, 0
1, 3278, Note_on_c, 0, 42, 90
1, 3308, Note_on_c, 0, 52, 0
1, 3308, Note_on_c, 0, 40, 100
1, 3308, Note_on_c, 0, 72, 0
1, 3308, Note_on_c, 0, 74, 115
1, 3308, Note_on_c, 0, 35, 0
1, 3308, Note_on_c, 0, 35, 100
1, 3308, Note_on_c, 0, 38, 0
1, 3308, Note_on_c, 0, 44, 0
1, 3308, Note_on_c, 0, 42, 90
1, 3338, Note_on_c, 0, 68, 0
1, 3338, Note_on_c, 0, 71, 100
1, 3338, Note_on_c, 0, 38, 100
1, 3338, Note_on_c, 0, 44, 0
1, 3338, Note_on_c, 0, 44, 90
1, 3368, Note_on_c, 0, 45, 0
1, 3368, Note_on_c, 0, 41, 100
1, 3368, Note_on_c, 0, 74, 0
1, 3368, Note_on_c, 0, 72, 115
1, 3368, Note_on_c, 0, 35, 0
1, 3368, Note_on_c, 0, 35, 100
1, 3368, Note_on_c, 0, 44, 0
1, 3368, Note_on_c, 0, 44, 90
1, 3383, Note_on_c, 0, 38, 0
1, 3383, Note_on_c, 0, 40, 100
1, 3413, Note_on_c, 0, 36, 0
1, 3413, Note_on_c, 0, 48, 100
1, 3413, Note_on_c, 0, 76, 0
1, 3413, Note_on_c, 0, 72, 115
1, 3413, Note_on_c, 0, 44, 0
1, 3413, Note_on_c, 0, 44, 90
1, 3443, Note_on_c, 0, 41, 0
1, 3443, Note_on_c, 0, 44, 100
1, 3443, Note_on_c, 0, 72, 0
1, 3443, Note_on_c, 0, 71, 115
1, 3443, Note_on_c, 0, 81, 0
1, 3443, Note_on_c, 0, 72, 0
1, 3443, Note_on_c, 0, 57, 0
1, 3443, Note_on_c, 0, 68, 100
1, 3443, Note_on_c, 0, 64, 100
1, 3443, Note_on_c, 0, 56, 100
1, 3443, Note_on_c, 0, 69, 0
1, 3443, Note_on_c, 0, 68, 100
1, 3443, Note_on_c, 0, 33, 0
1, 3443, Note_on_c, 0, 45, 0
1, 3443, Note_on_c, 0, 44, 100
1, 3443, Note_on_c, 0, 32, 100
1, 3443, Note_on_c, 0, 35, 0
1, 3443, Note_on_c, 0, 35, 100
1, 3443, Note_on_c, 0, 38, 0
1, 3443, Note_on_c, 0, 44, 0
1, 3443, Note_on_c, 0, 42, 90
1, 3473, Note_on_c, 0, 76, 0
1, 3473, Note_on_c, 0, 81, 100
1, 3473, Note_on_c, 0, 38, 100
1, 3473, Note_on_c, 0, 42, 0
1, 3473, Note_on_c, 0, 44, 90
1, 3503, Note_on_c, 0, 40, 0
1, 3503, Note_on_c, 0, 52, 100
1, 3503, Note_on_c, 0, 38, 0
1, 3503, Note_on_c, 0, 44, 0
1, 3503, Note_on_c, 0, 44, 90
1, 3533, Note_on_c, 0, 48, 0
1, 3533, Note_on_c, 0, 36, 100
1, 3533, Note_on_c, 0, 35, 0
1, 3533, Note_on_c, 0, 35, 100
1, 3533, Note_on_c, 0, 38, 100
1, 3533, Note_on_c, 0, 44, 0
1, 3533, Note_on_c, 0, 42, 90
1, 3564, Note_on_c, 0, 40, 0
1, 3564, Note_on_c, 0, 52, 100
1, 3564, Note_on_c, 0, 76, 100
1, 3564, Note_on_c, 0, 71, 100
1, 3594, Note_on_c, 0, 40, 100
1, 3594, Note_on_c, 0, 42, 0
1, 3594, Note_on_c, 0, 44, 90
1, 3624, Note_on_c, 0, 52, 0
1, 3624, Note_on_c, 0, 40, 100
1, 3624, Note_on_c, 0, 72, 0
1, 3624, Note_on_c, 0, 74, 115
1, 3624, Note_on_c, 0, 35, 0
1, 3624, Note_on_c, 0, 35, 100
1, 3624, Note_on_c, 0, 38, 0
1, 3624, Note_on_c, 0, 44, 0
1, 3624, Note_on_c, 0, 42, 90
1, 3654, Note_on_c, 0, 40, 0
1, 3654, Note_on_c, 0, 52, 100
1, 3654, Note_on_c, 0, 76, 0
1, 3654, Note_on_c, 0, 64, 100
1, 3654, Note_on_c, 0, 28, 0
1, 3654, Note_on_c, 0, 40, 0
1, 3654, Note_on_c, 0, 40, 100
1, 3654, Note_on_c, 0, 28, 100
1, 3654, Note_on_c, 0, 35, 0
1, 3654, Note_on_c, 0, 35, 100
1, 3654, Note_on_c, 0, 44, 0
1, 3654, Note_on_c, 0, 44, 90
1, 3684, Note_on_c, 0, 52, 0
1, 3684, Note_on_c, 0, 45, 100
1, 3684, Note_on_c, 0, 76, 0
1, 3684, Note_on_c, 0, 72, 115
1, 3684, Note_on_c, 0, 76, 0
1, 3684, Note_on_c, 0, 71, 0
1, 3684, Note_on_c, 0, 52, 0
1, 3684, Note_on_c, 0, 69, 100
1, 3684, Note_on_c, 0, 64, 100
1, 3684, Note_on_c, 0, 57, 100
1, 3684, Note_on_c, 0, 64, 0
1, 3684, Note_on_c, 0, 69, 100
1, 3684, Note_on_c, 0, 28, 0
1, 3684, Note_on_c, 0, 40, 0
1, 3684, Note_on_c, 0, 45, 100
1, 3684, Note_on_c, 0, 33, 100
1, 3684, Note_on_c, 0, 35, 0
1, 3684, Note_on_c, 0, 35, 100
1, 3684, Note_on_c, 0, 44, 0
1, 3684, Note_on_c, 0, 42, 90
1, 3744, Note_on_c, 0, 88, 0
1, 3744, Note_on_c, 0, 76, 0
1, 3744, Note_on_c, 0, 80, 0
1, 3744, Note_on_c, 0, 83, 0
1, 3744, Note_on_c, 0, 88, 0
1, 3744, Note_on_c, 0, 76, 0
1, 3744, Note_on_c, 0, 80, 0
1, 3744, Note_on_c, 0, 83, 0
1, 3744, Note_on_c, 0, 28, 0
1, 3744, Note_on_c, 0, 40, 0
1, 3744, Note_on_c, 0, 35, 0
1, 3744, Note_on_c, 0, 35, 100
1, 3774, Note_on_c, 0, 33, 0
1, 3774, Note_on_c, 0, 45, 0
1, 3774, Note_on_c, 0, 45, 100
1, 3774, Note_on_c, 0, 33, 100
1, 3774, Note_on_c, 0, 76, 0
1, 3774, Note_on_c, 0, 72, 100
1, 3774, Note_on_c, 0, 64, 0
1, 3774, Note_on_c, 0, 60, 0
1, 3774, Note_on_c, 0, 60, 100
1, 3774, Note_on_c, 0, 35, 0
1, 3774, Note_on_c, 0, 35, 100
1, 3774, Note_on_c, 0, 44, 0
1, 3774, Note_on_c, 0, 42, 90
1, 3834, Note_on_c, 0, 71, 0
1, 3834, Note_on_c, 0, 68, 0
1, 3834, Note_on_c, 0, 72, 100
1, 3834, Note_on_c, 0, 69, 100
1, 3834, Note_on_c, 0, 64, 100
1, 3834, Note_on_c, 0, 71, 0
1, 3834, Note_on_c, 0, 80, 0
1, 3834, Note_on_c, 0, 72, 100
1, 3834, Note_on_c, 0, 81, 100
1, 3834, Note_on_c, 0, 71, 0
1, 3834, Note_on_c, 0, 68, 0
1, 3834, Note_on_c, 0, 52, 0
1, 3834, Note_on_c, 0, 72, 100
1, 3834, Note_on_c, 0, 69, 100
1, 3834, Note_on_c, 0, 64, 100
1, 3834, Note_on_c, 0, 57, 100
1, 3834, Note_on_c, 0, 28, 0
1, 3834, Note_on_c, 0, 40, 0
1, 3834, Note_on_c, 0, 45, 100
1, 3834, Note_on_c, 0, 33, 100
1, 3834, Note_on_c, 0, 35, 0
1, 3834, Note_on_c, 0, 35, 100
1, 3894, Note_on_c, 0, 44, 0
1, 3894, Note_on_c, 0, 56, 100
1, 3894, Note_on_c, 0, 80, 100
1, 3894, Note_on_c, 0, 71, 100
1, 3894, Note_on_c, 0, 76, 100
1, 3894, Note_on_c, 0, 59, 66
1, 3954, Note_on_c, 0, 52, 0
1, 3954, Note_on_c, 0, 40, 100
1, 3954, Note_on_c, 0, 72, 0
1, 3954, Note_on_c, 0, 74, 115
1, 3954, Note_on_c, 0, 59, 0
1, 3954, Note_on_c, 0, 64, 0
1, 3954, Note_on_c, 0, 71, 100
1, 3954, Note_on_c, 0, 76, 100
1, 3954, Note_on_c, 0, 71, 0
1, 3954, Note_on_c, 0, 76, 0
1, 3954, Note_on_c, 0, 76, 100
1, 3954, Note_on_c, 0, 71, 100
1, 3954, Note_on_c, 0, 28, 0
1, 3954, Note_on_c, 0, 40, 0
1, 3954, Note_on_c, 0, 40, 100
1, 3954, Note_on_c, 0, 28, 100
1, 3954, Note_on_c, 0, 36, 0
1, 3954, Note_on_c, 0, 36, 100
1, 4014, Note_on_c, 0, 88, 0
1, 4014, Note_on_c, 0, 76, 0
1, 4014, Note_on_c, 0, 80, 0
1, 4014, Note_on_c, 0, 83, 0
1, 4014, Note_on_c, 0, 88, 0
1, 4014, Note_on_c, 0, 76, 0
1, 4014, Note_on_c, 0, 80, 0
1, 4014, Note_on_c, 0, 83, 0
1, 4014, Note_on_c, 0, 28, 0
1, 4014, Note_on_c, 0, 40, 0
1, 4014, Note_on_c, 0, 35, 0
1, 4014, Note_on_c, 0, 35, 100
1, 4029, Note_on_c, 0, 38, 0
1, 4029, Note_on_c, 0, 40, 127
1, 4049, Note_on_c, 0, 77, 0
1, 4049, Note_on_c, 0, 79, 115
1, 4079, Note_on_c, 0, 69, 0
1, 4079, Note_on_c, 0, 74, 100
1, 4079, Note_on_c, 0, 38, 100
1, 4079, Note_on_c, 0, 42, 0
1, 4079, Note_on_c, 0, 44, 90
1, 4109, Note_on_c, 0, 69, 0
1, 4109, Note_on_c, 0, 74, 100
1, 4109, Note_on_c, 0, 38, 100
1, 4109, Note_on_c, 0, 42, 0
1, 4109, Note_on_c, 0, 44, 90
1, 4139, Note_on_c, 0, 69, 0
1, 4139, Note_on_c, 0, 74, 100
1, 4139, Note_on_c, 0, 38, 100
1, 4139, Note_on_c, 0, 42, 0
1, 4139, Note_on_c, 0, 44, 90
1, 4154, Note_on_c, 0, 40, 0
1, 4184, Note_on_c, 0, 45, 0
1, 4184, Note_on_c, 0, 44, 100
1, 4184, Note_on_c, 0, 33, 0
1, 4184, Note_on_c, 0, 45, 0
1, 4184, Note_on_c, 0, 44, 100
1, 4184, Note_on_c, 0, 32, 100
1, 4184, Note_on_c, 0, 35, 0
1, 4184, Note_on_c, 0, 35, 100
1, 4184, Note_on_c, 0, 38, 0
1, 4184, Note_on_c, 0, 38, 100
1, 4184, Note_on_c, 0, 44, 0
1, 4184, Note_on_c, 0, 44, 90
1, 4189, Note_on_c, 0, 77, 0
1, 4189, Note_on_c, 0, 79, 115
1, 4219, Note_on_c, 0, 68, 0
1, 4219, Note_on_c, 0, 71, 100
1, 4219, Note_on_c, 0, 38, 100
1, 4219, Note_on_c, 0, 44, 0
1, 4219, Note_on_c, 0, 44, 90
1, 4249, Note_on_c, 0, 45, 0
1, 4249, Note_on_c, 0, 41, 100
1, 4249, Note_on_c, 0, 74, 0
1, 4249, Note_on_c, 0, 72, 115
1, 4249, Note_on_c, 0, 35, 0
1, 4249, Note_on_c, 0, 35, 100
1, 4249, Note_on_c, 0, 44, 0
1, 4249, Note_on_c, 0, 44, 90
1, 4264, Note_on_c, 0, 38, 0
1, 4264, Note_on_c, 0, 40, 100
1, 4294, Note_on_c, 0, 36, 0
1, 4294, Note_on_c, 0, 48, 100
1, 4294, Note_on_c, 0, 76, 0
1, 4294, Note_on_c, 0, 72, 115
1, 4294, Note_on_c, 0, 44, 0
1, 4294, Note_on_c, 0, 44, 90
1, 4324, Note_on_c, 0, 41, 0
1, 4324, Note_on_c, 0, 44, 100
1, 4324, Note_on_c, 0, 72, 0
1, 4324, Note_on_c, 0, 71, 115
1, 4324, Note_on_c, 0, 81, 0
1, 4324, Note_on_c, 0, 72, 0
1, 4324, Note_on_c, 0, 57, 0
1, 4324, Note_on_c, 0, 68, 100
1, 4324, Note_on_c, 0, 64, 100
1, 4324, Note_on_c, 0, 56, 100
1, 4324, Note_on_c, 0, 69, 0
1, 4324, Note_on_c, 0, 68, 100
1, 4324, Note_on_c, 0, 33, 0
1, 4324, Note_on_c, 0, 45, 0
1, 4324, Note_on_c, 0, 44, 100
1, 4324, Note_on_c, 0, 32, 100
1, 4324, Note_on_c, 0, 35, 0
1, 4324, Note_on_c, 0, 35, 100
1, 4324, Note_on_c, 0, 38, 0
1, 4324, Note_on_c, 0, 44, 0
1, 4324, Note_on_c, 0, 42, 90
1, 4354, Note_on_c, 0, 76, 0
1, 4354, Note_on_c, 0, 81, 100
1, 4354, Note_on_c, 0, 38, 100
1, 4354, Note_on_c, 0, 42, 0
1, 4354, Note_on_c, 0, 44, 90
1, 4384, Note_on_c, 0, 40, 0
1, 4384, Note_on_c, 0, 52, 100
1, 4384, Note_on_c, 0, 38, 0
1, 4384, Note_on_c, 0, 44, 0
1, 4384, Note_on_c, 0, 44, 90
1, 4414, Note_on_c, 0, 48, 0
1, 4414, Note_on_c, 0, 36, 100
1, 4414, Note_on_c, 0, 35, 0
1, 4414, Note_on_c, 0, 35, 100
1, 4414, Note_on_c, 0, 38, 100
1, 4414, Note_on_c, 0, 44, 0
1, 4414, Note_on_c, 0, 42, 90
1, 4445, Note_on_c, 0, 40, 0
1, 4445, Note_on_c, 0, 52, 100
1, 4445, Note_on_c, 0, 76, 100
1, 4445, Note_on_c, 0, 71, 100
1, 4475, Note_on_c, 0, 40, 100
1, 4475, Note_on_c, 0, 42, 0
1, 4475, Note_on_c, 0, 44, 90
1, 4505, Note_on_c, 0, 52, 0
1, 4505, Note_on_c, 0, 40, 100
1, 4505, Note_on_c, 0, 72, 0
1, 4505, Note_on_c, 0, 74, 115
1, 4505, Note_on_c, 0, 35, 0
1, 4505, Note_on_c, 0, 35, 100
1, 4505, Note_on_c, 0, 38, 0
1, 4505, Note_on_c, 0, 44, 0
1, 4505, Note_on_c, 0, 42, 90
1, 4535, Note_on_c, 0, 40, 0
1, 4535, Note_on_c, 0, 52, 100
1, 4535, Note_on_c, 0, 76, 0
1, 4535, Note_on_c, 0, 64, 100
1, 4535, Note_on_c, 0, 28, 0
1, 4535, Note_on_c, 0, 40, 0
1, 4535, Note_on_c, 0, 40, 100
1, 4535, Note_on_c, 0, 28, 100
1, 4535, Note_on_c, 0, 35, 0
1, 4535, Note_on_c, 0, 35, 100
1, 4535, Note_on_c, 0, 44, 0
1, 4535, Note_on_c, 0, 44, 90
1, 4565, Note_on_c, 0, 52, 0
1, 4565, Note_on_c, 0, 45, 100
1, 4565, Note_on_c, 0, 76, 0
1, 4565, Note_on_c, 0, 72, 115
1, 4565, Note_on_c, 0, 76, 0
1, 4565, Note_on_c, 0, 71, 0
1, 4565, Note_on_c, 0, 52, 0
1, 4565, Note_on_c, 0, 69, 100
1, 4565, Note_on_c, 0, 64, 100
1, 4565, Note_on_c, 0, 57, 100
1, 4565, Note_on_c, 0, 64, 0
1, 4565, Note_on_c, 0, 69, 100
1, 4565, Note_on_c, 0, 28, 0
1, 4565, Note_on_c, 0, 40, 0
1, 4565, Note_on_c, 0, 45, 100
1, 4565, Note_on_c, 0, 33, 100
1, 4565, Note_on_c, 0, 35, 0
1, 4565, Note_on_c, 0, 35, 100
1, 4565, Note_on_c, 0, 44, 0
1, 4565, Note_on_c, 0, 42, 90
1, 4625, Note_on_c, 0, 88, 0
1, 4625, Note_on_c, 0, 76, 0
1, 4625, Note_on_c, 0, 80, 0
1, 4625, Note_on_c, 0, 83, 0
1, 4625, Note_on_c, 0, 88, 0
1, 4625, Note_on_c, 0, 76, 0
1, 4625, Note_on_c, 0, 80, 0
1, 4625, Note_on_c, 0, 83, 0
1, 4625, Note_on_c, 0, 28, 0
1, 4625, Note_on_c, 0, 40, 0
1, 4625, Note_on_c, 0, 35, 0
1, 4625, Note_on_c, 0, 35, 100
1, 4655, Note_on_c, 0, 33, 0
1, 4655, Note_on_c, 0, 45, 0
1, 4655, Note_on_c, 0, 45, 100
1, 4655, Note_on_c, 0, 33, 100
1, 4655, Note_on_c, 0, 76, 0
1, 4655, Note_on_c, 0, 72, 100
1, 4655, Note_on_c, 0, 64, 0
1, 4655, Note_on_c, 0, 60, 0
1, 4655, Note_on_c, 0, 60, 100
1, 4655, Note_on_c, 0, 35, 0
1, 4655, Note_on_c, 0, 35, 100
1, 4655, Note_on_c, 0, 44, 0
1, 4655, Note_on_c, 0, 42, 90
1, 4715, Note_on_c, 0, 71, 0
1, 4715, Note_on_c, 0, 68, 0
1, 4715, Note_on_c, 0, 72, 100
1, 4715, Note_on_c, 0, 69, 100
1, 4715, Note_on_c, 0, 64, 100
1, 4715, Note_on_c, 0, 71, 0
1, 4715, Note_on_c, 0, 80, 0
1, 4715, Note_on_c, 0, 72, 100
1, 4715, Note_on_c, 0, 81, 100
1, 4715, Note_on_c, 0, 71, 0
1, 4715, Note_on_c, 0, 68, 0
1, 4715, Note_on_c, 0, 52, 0
1, 4715, Note_on_c, 0, 72, 100
1, 4715, Note_on_c, 0, 69, 100
1, 4715, Note_on_c, 0, 64, 100
1, 4715, Note_on_c, 0, 57, 100
1, 4715, Note_on_c, 0, 28, 0
1, 4715, Note_on_c, 0, 40, 0
1, 4715, Note_on_c, 0, 45, 100
1, 4715, Note_on_c, 0, 33, 100
1, 4715, Note_on_c, 0, 35, 0
1, 4715, Note_on_c, 0, 35, 100
1, 4775, Note_on_c, 0, 44, 0
1, 4775, Note_on_c, 0, 56, 100
1, 4775, Note_on_c, 0, 80, 100
1, 4775, Note_on_c, 0, 71, 100
1, 4775, Note_on_c, 0, 76, 100
1, 4775, Note_on_c, 0, 59, 66
1, 4835, Note_on_c, 0, 52, 0
1, 4835, Note_on_c, 0, 40, 100
1, 4835, Note_on_c, 0, 72, 0
1, 4835, Note_on_c, 0, 74, 115
1, 4835, Note_on_c, 0, 59, 0
1, 4835, Note_on_c, 0, 64, 0
1, 4835, Note_on_c, 0, 71, 100
1, 4835, Note_on_c, 0, 76, 100
1, 4835, Note_on_c, 0, 71, 0
1, 4835, Note_on_c, 0, 76, 0
1, 4835, Note_on_c, 0, 76, 100
1, 4835, Note_on_c, 0, 71, 100
1, 4835, Note_on_c, 0, 28, 0
1, 4835, Note_on_c, 0, 40, 0
1, 4835, Note_on_c, 0, 40, 100
1, 4835, Note_on_c, 0, 28, 100
1, 4835, Note_on_c, 0, 36, 0
1, 4835, Note_on_c, 0, 36, 100
1, 4895, Note_on_c, 0, 88, 0
1, 4895, Note_on_c, 0, 76, 0
1, 4895, Note_on_c, 0, 80, 0
1, 4895, Note_on_c, 0, 83, 0
1, 4895, Note_on_c, 0, 88, 0
1, 4895, Note_on_c, 0, 76, 0
1, 4895, Note_on_c, 0, 80, 0
1, 4895, Note_on_c, 0, 83, 0
1, 4895, Note_on_c, 0, 28, 0
1, 4895, Note_on_c, 0, 40, 0
1, 4895, Note_on_c, 0, 35, 0
1, 4895, Note_on_c, 0, 35, 100
1, 4910, Note_on_c, 0, 38, 0
1, 4910, Note_on_c, 0, 40, 127
1, 4930, Note_on_c, 0, 77, 0
1, 4930, Note_on_c, 0, 79, 115
1, 4960, Note_on_c, 0, 69, 0
1, 4960, Note_on_c, 0, 74, 100
1, 4960, Note_on_c, 0, 38, 100
1, 4960, Note_on_c, 0, 42, 0
1, 4960, Note_on_c, 0, 44, 90
1, 4990, Note_on_c, 0, 69, 0
1, 4990, Note_on_c, 0, 74, 100
1, 4990, Note_on_c, 0, 38, 100
1, 4990, Note_on_c, 0, 42, 0
1, 4990, Note_on_c, 0, 44, 90
1, 5020, Note_on_c, 0, 69, 0
1, 5020, Note_on_c, 0, 74, 100
1, 5020, Note_on_c, 0, 38, 100
1, 5020, Note_on_c, 0, 42, 0
1, 5020, Note_on_c, 0, 44, 90
1, 5035, Note_on_c, 0, 40, 0
1, 5065, Note_on_c, 0, 45, 0
1, 5065, Note_on_c, 0, 44, 100
1, 5065, Note_on_c, 0, 33, 0
1, 5065, Note_on_c, 0, 45, 0
1, 5065, Note_on_c, 0, 44, 100
1, 5065, Note_on_c, 0, 32, 100
1, 5065, Note_on_c, 0, 35, 0
1, 5065, Note_on_c, 0, 35, 100
1, 5065, Note_on_c, 0, 38, 0
1, 5065, Note_on_c, 0, 38, 100
1, 5065, Note_on_c, 0, 44, 0
1, 5065, Note_on_c, 0, 44, 90
1, 5070, Note_on_c, 0, 77, 0
1, 5070, Note_on_c, 0, 79, 115
1, 5100, Note_on_c, 0, 68, 0
1, 5100, Note_on_c, 0, 71, 100
1, 5100, Note_on_c, 0, 38, 100
1, 5100, Note_on_c, 0, 44, 0
1, 5100, Note_on_c, 0, 44, 90
1, 5130, Note_on_c, 0, 45, 0
1, 5130, Note_on_c, 0, 41, 100
1, 5130, Note_on_c, 0, 74, 0
1, 5130, Note_on_c, 0, 72, 115
1, 5130, Note_on_c, 0, 35, 0
1, 5130, Note_on_c, 0, 35, 100
1, 5130, Note_on_c, 0, 44, 0
1, 5130, Note_on_c, 0, 44, 90
1, 5145, Note_on_c, 0, 38, 0
1, 5145, Note_on_c, 0, 40, 100
1, 5175, Note_on_c, 0, 36, 0
1, 5175, Note_on_c, 0, 48, 100
1, 5175, Note_on_c, 0, 76, 0
1, 5175, Note_on_c, 0, 72, 115
1, 5175, Note_on_c, 0, 44, 0
1, 5175, Note_on_c, 0, 44, 90
1, 5205, Note_on_c, 0, 41, 0
1, 5205, Note_on_c, 0, 44, 100
1, 5205, Note_on_c, 0, 72, 0
1, 5205, Note_on_c, 0, 71, 115
1, 5205, Note_on_c, 0, 81, 0
1, 5205, Note_on_c, 0, 72, 0
1, 5205, Note_on_c, 0, 57, 0
1, 5205, Note_on_c, 0, 68, 100
1, 5205, Note_on_c, 0, 64, 100
1, 5205, Note_on_c, 0, 56, 100
1, 5205, Note_on_c, 0, 69, 0
1, 5205, Note_on_c, 0, 68, 100
1, 5205, Note_on_c, 0, 33, 0
1, 5205, Note_on_c, 0, 45, 0
1, 5205, Note_on_c, 0, 44, 100
1, 5205, Note_on_c, 0, 32, 100
1, 5205, Note_on_c, 0, 35, 0
1, 5205, Note_on_c, 0, 35, 100
1, 5205, Note_on_c, 0, 38, 0
1, 5205, Note_on_c, 0, 44, 0
1, 5205, Note_on_c, 0, 42, 90
1, 5235, Note_on_c, 0, 76, 0
1, 5235, Note_on_c, 0, 81, 100
1, 5235, Note_on_c, 0, 38, 100
1, 5235, Note_on_c, 0, 42, 0
1, 5235, Note_on_c, 0, 44, 90
1, 5265, Note_on_c, 0, 40, 0
1, 5265, Note_on_c, 0, 52, 100
1, 5265, Note_on_c, 0, 38, 0
1, 5265, Note_on_c, 0, 44, 0
1, 5265, Note_on_c, 0, 44, 90
1, 5295, Note_on_c, 0, 48, 0
1, 5295, Note_on_c, 0, 36, 100
1, 5295, Note_on_c, 0, 35, 0
1, 5295, Note_on_c, 0, 35, 100
1, 5295, Note_on_c, 0, 38, 100
1, 5295, Note_on_c, 0, 44, 0
1, 5295, Note_on_c, 0, 42, 90
1, 5326, Note_on_c, 0, 40, 0
1, 5326, Note_on_c, 0, 52, 100
1, 5326, Note_on_c, 0, 76, 100
1, 5326, Note_on_c, 0, 71, 100
1, 5356, Note_on_c, 0, 40, 100
1, 5356, Note_on_c, 0, 42, 0
1, 5356, Note_on_c, 0, 44, 90
1, 5386, Note_on_c, 0, 52, 0
1, 5386, Note_on_c, 0, 40, 100
1, 5386, Note_on_c, 0, 72, 0
1, 5386, Note_on_c, 0, 74, 115
1, 5386, Note_on_c, 0, 35, 0
1, 5386, Note_on_c, 0, 35, 100
1, 5386, Note_on_c, 0, 38, 0
1, 5386, Note_on_c, 0, 44, 0
1, 5386, Note_on_c, 0, 42, 90
1, 5416, Note_on_c, 0, 40, 0
1, 5416, Note_on_c, 0, 52, 100
1, 5416, Note_on_c, 0, 76, 0
1, 5416, Note_on_c, 0, 64, 100
1, 5416, Note_on_c, 0, 28, 0
1, 5416, Note_on_c, 0, 40, 0
1, 5416, Note_on_c, 0, 40, 100
1, 5416, Note_on_c, 0, 28, 100
1, 5416, Note_on_c, 0, 35, 0
1, 5416, Note_on_c, 0, 35, 100
1, 5416, Note_on_c, 0, 44, 0
1, 5416, Note_on_c, 0, 44, 90
1, 5446, Note_on_c, 0, 52, 0
1, 5446, Note_on_c, 0, 45, 100
1, 5446, Note_on_c, 0, 76, 0
1, 5446, Note_on_c, 0, 72, 115
1, 5446, Note_on_c, 0, 76, 0
1, 5446, Note_on_c, 0, 71, 0
1, 5446, Note_on_c, 0, 52, 0
1, 5446, Note_on_c, 0, 69, 100
1, 5446, Note_on_c, 0, 64, 100
1, 5446, Note_on_c, 0, 57, 100
1, 5446, Note_on_c, 0, 64, 0
1, 5446, Note_on_c, 0, 69, 100
1, 5446, Note_on_c, 0, 28, 0
1, 5446, Note_on_c, 0, 40, 0
1, 5446, Note_on_c, 0, 45, 100
1, 5446, Note_on_c, 0, 33, 100
1, 5446, Note_on_c, 0, 35, 0
1, 5446, Note_on_c, 0, 35, 100
1, 5446, Note_on_c, 0, 44, 0
1, 5446, Note_on_c, 0, 42, 90
1, 5506, Note_on_c, 0, 88, 0
1, 5506, Note_on_c, 0, 76, 0
1, 5506, Note_on_c, 0, 80, 0
1, 5506, Note_on_c, 0, 83, 0
1, 5506, Note_on_c, 0, 88, 0
1, 5506, Note_on_c, 0, 76, 0
1, 5506, Note_on_c, 0, 80, 0
1, 5506, Note_on_c, 0, 83, 0
1, 5506, Note_on_c, 0, 28, 0
1, 5506, Note_on_c, 0, 40, 0
1, 5506, Note_on_c, 0, 35, 0
1, 5506, Note_on_c, 0, 35, 100
1, 5536, Note_on_c, 0, 33, 0
1, 5536, Note_on_c, 0, 45, 0
1, 5536, Note_on_c, 0, 45, 100
1, 5536, Note_on_c, 0, 33, 100
1, 5536, Note_on_c, 0, 76, 0
1, 5536, Note_on_c, 0, 72, 100
1, 5536, Note_on_c, 0, 64, 0
1, 5536, Note_on_c, 0, 60, 0
1, 5536, Note_on_c, 0, 60, 100
1, 5536, Note_on_c, 0, 35, 0
1, 5536, Note_on_c, 0, 35, 100
1, 5536, Note_on_c, 0, 44, 0
1, 5536, Note_on_c, 0, 42, 90
1, 5596, Note_on_c, 0, 71, 0
1, 5596, Note_on_c, 0, 68, 0
1, 5596, Note_on_c, 0, 72, 100
1, 5596, Note_on_c, 0, 69, 100
1, 5596, Note_on_c, 0, 64, 100
1, 5596, Note_on_c, 0, 71, 0
1, 5596, Note_on_c, 0, 80, 0
1, 5596, Note_on_c, 0, 72, 100
1, 5596, Note_on_c, 0, 81, 100
1, 5596, Note_on_c, 0, 71, 0
1, 5596, Note_on_c, 0, 68, 0
1, 5596, Note_on_c, 0, 52, 0
1, 5596, Note_on_c, 0, 72, 100
1, 5596, Note_on_c, 0, 69, 100
1, 5596, Note_on_c, 0, 64, 100
1, 5596, Note_on_c, 0, 57, 100
1, 5596, Note_on_c, 0, 28, 0
1, 5596, Note_on_c, 0, 40, 0
1, 5596, Note_on_c, 0, 45, 100
1, 5596, Note_on_c, 0, 33, 100
1, 5596, Note_on_c, 0, 35, 0
1, 5596, Note_on_c, 0, 35, 100
1, 5656, Note_on_c, 0, 44, 0
1, 5656, Note_on_c, 0, 56, 100
1, 5656, Note_on_c, 0, 80, 100
1, 5656, Note_on_c, 0, 71, 100
1, 5656, Note_on_c, 0, 76, 100
1, 5656, Note_on_c, 0, 59, 66
1, 5716, Note_on_c, 0, 52, 0
1, 5716, Note_on_c, 0, 40, 100
1, 5716, Note_on_c, 0, 72, 0
1, 5716, Note_on_c, 0, 74, 115
1, 5716, Note_on_c, 0, 59, 0
1, 5716, Note_on_c, 0, 64, 0
1, 5716, Note_on_c, 0, 71, 100
1, 5716, Note_on_c, 0, 76, 100
1, 5716, Note_on_c, 0, 71, 0
1, 5716, Note_on_c, 0, 76, 0
1, 5716, Note_on_c, 0, 76, 100
1, 5716, Note_on_c, 0, 71, 100
1, 5716, Note_on_c, 0, 28, 0
1, 5716, Note_on_c, 0, 40, 0
1, 5716, Note_on_c, 0, 40, 100
1, 5716, Note_on_c, 0, 28, 100
1, 5716, Note_on_c, 0, 36, 0
1, 5716, Note_on_c, 0, 36, 100
1, 5776, Note_on_c, 0, 88, 0
1, 5776, Note_on_c, 0, 76, 0
1, 5776, Note_on_c, 0, 80, 0
1, 5776, Note_on_c, 0, 83, 0
1, 5776, Note_on_c, 0, 88, 0
1, 5776, Note_on_c, 0, 76, 0
1, 5776, Note_on_c, 0, 80, 0
1, 5776, Note_on_c, 0, 83, 0
1, 5776, Note_on_c, 0, 28, 0
1, 5776, Note_on_c, 0, 40, 0
1, 5776, Note_on_c, 0, 35, 0
1, 5776, Note_on_c, 0, 35, 100
1, 5791, Note_on_c, 0, 38, 0
1, 5791, Note_on_c, 0, 40, 127
1, 5811, Note_on_c, 0, 77, 0
1, 5811, Note_on_c, 0, 79, 115
1, 5841, Note_on_c, 0, 69, 0
1, 5841, Note_on_c, 0, 74, 100
1, 5841, Note_on_c, 0, 38, 100
1, 5841, Note_on_c, 0, 42, 0
1, 5841, Note_on_c, 0, 44, 90
1, 5871, Note_on_c, 0, 69, 0
1, 5871, Note_on_c, 0, 74, 100
1, 5871, Note_on_c, 0, 38, 100
1, 5871, Note_on_c, 0, 42, 0
1, 5871, Note_on_c, 0, 44, 90
1, 5901, Note_on_c, 0, 69, 0
1, 5901, Note_on_c, 0, 74, 100
1, 5901, Note_on_c, 0, 38, 100
1, 5901, Note_on_c, 0, 42, 0
1, 5901, Note_on_c, 0, 44, 90
1, 5916, Note_on_c, 0, 40, 0
1, 5946, Note_on_c, 0, 45, 0
1, 5946, Note_on_c, 0, 44, 100
1, 5946, Note_on_c, 0, 33, 0
1, 5946, Note_on_c, 0, 45, 0
1, 5946, Note_on_c, 0, 44, 100
1, 5946, Note_on_c, 0, 32, 100
1, 5946, Note_on_c, 0, 35, 0
1, 5946, Note_on_c, 0, 35, 100
1, 5946, Note_on_c, 0, 38, 0
1, 5946, Note_on_c, 0, 38, 100
1, 5946, Note_on_c, 0, 44, 0
1, 5946, Note_on_c, 0, 44, 90
1, 5951, Note_on_c, 0, 77, 0
1, 5951, Note_on_c, 0, 79, 115
1, 5981, Note_on_c, 0, 68, 0
1, 5981, Note_on_c, 0, 71, 100
1, 5981, Note_on_c, 0, 38, 100
1, 5981, Note_on_c, 0, 44, 0
1, 5981, Note_on_c, 0, 44, 90
1, 6011, Note_on_c, 0, 45, 0
1, 6011, Note_on_c, 0, 41, 100
1, 6011, Note_on_c, 0, 74, 0
1, 6011, Note_on_c, 0, 72, 115
1, 6011, Note_on_c, 0, 35, 0
1, 6011, Note_on_c, 0, 35, 100
1, 6011, Note_on_c, 0, 44, 0
1, 6011, Note_on_c, 0, 44, 90
1, 6026, Note_on_c, 0, 38, 0
1, 6026, Note_on_c, 0, 40, 100
1, 6056, Note_on_c, 0, 36, 0
1, 6056, Note_on_c, 0, 48, 100
1, 6056, Note_on_c, 0, 76, 0
1, 6056, Note_on_c, 0, 72, 115
1, 6056, Note_on_c, 0, 44, 0
1, 6056, Note_on_c, 0, 44, 90
1, 6086, Note_on_c, 0, 41, 0
1, 6086, Note_on_c, 0, 44, 100
1, 6086, Note_on_c, 0, 72, 0
1, 6086, Note_on_c, 0, 71, 115
1, 6086, Note_on_c, 0, 81, 0
1, 6086, Note_on_c, 0, 72, 0
1, 6086, Note_on_c, 0, 57, 0
1, 6086, Note_on_c, 0, 68, 100
1, 6086, Note_on_c, 0, 64, 100
1, 6086, Note_on_c, 0, 56, 100
1, 6086, Note_on_c, 0, 69, 0
1, 6086, Note_on_c, 0, 68, 100
1, 6086, Note_on_c, 0, 33, 0
1, 6086, Note_on_c, 0, 45, 0
1, 6086, Note_on_c, 0, 44, 100
1, 6086, Note_on_c, 0, 32, 100
1, 6086, Note_on_c, 0, 35, 0
1, 6086, Note_on_c, 0, 35, 100
1, 6086, Note_on_c, 0, 38, 0
1, 6086, Note_on_c, 0, 44, 0
1, 6086, Note_on_c, 0, 42, 90
1, 6116, Note_on_c, 0, 76, 0
1, 6116, Note_on_c, 0, 81, 100
1, 6116, Note_on_c, 0, 38, 100
1, 6116, Note_on_c, 0, 42, 0
1, 6116, Note_on_c, 0, 44, 90
1, 6146, Note_on_c, 0, 40, 0
1, 6146, Note_on_c, 0, 52, 100
1, 6146, Note_on_c, 0, 38, 0
1, 6146, Note_on_c, 0, 44, 0
1, 6146, Note_on_c, 0, 44, 90
1, 6176, Note_on_c, 0, 48, 0
1, 6176, Note_on_c, 0, 36, 100
1, 6176, Note_on_c, 0, 35, 0
1, 6176, Note_on_c, 0, 35, 100
1, 6176, Note_on_c, 0, 38, 100
1, 6176, Note_on_c, 0, 44, 0
1, 6176, Note_on_c, 0, 42, 90
1, 6207, Note_on_c, 0, 40, 0
1, 6207, Note_on_c, 0, 52, 100
1, 6207, Note_on_c, 0, 76, 100
1, 6207, Note_on_c, 0, 71, 100
1, 6237, Note_on_c, 0, 40, 100
1, 6237, Note_on_c, 0, 42, 0
1, 6237, Note_on_c, 0, 44, 90
1, 6267, Note_on_c, 0, 52, 0
1, 6267, Note_on_c, 0, 40, 100
1, 6267, Note_on_c, 0, 72, 0
1, 6267, Note_on_c, 0, 74, 115
1, 6267, Note_on_c, 0, 35, 0
1, 6267, Note_on_c, 0, 35, 100
1, 6267, Note_on_c, 0, 38, 0
1, 6267, Note_on_c, 0, 44, 0
1, 6267, Note_on_c, 0, 42, 90
1, 6297, Note_on_c, 0, 40, 0
1, 6297, Note_on_c, 0, 52, 100
1, 6297, Note_on_c, 0, 76, 0
1, 6297, Note_on_c, 0, 64, 100
1, 6297, Note_on_c, 0, 28, 0
1, 6297, Note_on_c, 0, 40, 0
1, 6297, Note_on_c, 0, 40, 100
1, 6297, Note_on_c, 0, 28, 100
1, 6297, Note_on_c, 0, 35, 0
1, 6297, Note_on_c, 0, 35, 100
1, 6297, Note_on_c, 0, 44, 0
1, 6297, Note_on_c, 0, 44, 90
1, 6327, Note_on_c, 0, 52, 0
1, 6327, Note_on_c, 0, 45, 100
1, 6327, Note_on_c, 0, 76, 0
1, 6327, Note_on_c, 0, 72, 115
1, 6327, Note_on_c, 0, 76, 0
1, 6327, Note_on_c, 0, 71, 0
1, 6327, Note_on_c, 0, 52, 0
1, 6327, Note_on_c, 0, 69, 100
1, 6327, Note_on_c, 0, 64, 100
1, 6327, Note_on_c, 0, 57, 100
1, 6327, Note_on_c, 0, 64, 0
1, 6327, Note_on_c, 0, 69, 100
1, 6327, Note_on_c, 0, 28, 0
1, 6327, Note_on_c, 0, 40, 0
1, 6327, Note_on_c, 0, 45, 100
1, 6327, Note_on_c, 0, 33, 100
1, 6327, Note_on_c, 0, 35, 0
1, 6327, Note_on_c, 0, 35, 100
1, 6327, Note_on_c, 0, 44, 0
1, 6327, Note_on_c, 0, 42, 90
1, 6387, Note_on_c, 0, 88, 0
1, 6387, Note_on_c, 0, 76, 0
1, 6387, Note_on_c, 0, 80, 0
1, 6387, Note_on_c, 0, 83, 0
1, 6387, Note_on_c, 0, 88, 0
1, 6387, Note_on_c, 0, 76, 0
1, 6387, Note_on_c, 0, 80, 0
1, 6387, Note_on_c, 0, 83, 0
1, 6387, Note_on_c, 0, 28, 0
1, 6387, Note_on_c, 0, 40, 0
1, 6387, Note_on_c, 0, 35, 0
1, 6387, Note_on_c, 0, 35, 100
1, 6417, Note_on_c, 0, 33, 0
1, 6417, Note_on_c, 0, 45, 0
1, 6417, Note_on_c, 0, 45, 100
1, 6417, Note_on_c, 0, 33, 100
1, 6417, Note_on_c, 0, 76, 0
1, 6417, Note_on_c, 0, 72, 100
1, 6417, Note_on_c, 0, 64, 0
1, 6417, Note_on_c, 0, 60, 0
1, 6417, Note_on_c, 0, 60, 100
1, 6417, Note_on_c, 0, 35, 0
1, 6417, Note_on_c, 0, 35, 100
1, 6417, Note_on_c, 0, 44, 0
1, 6417, Note_on_c, 0, 42, 90
1, 6477, Note_on_c, 0, 71, 0
1, 6477, Note_on_c, 0, 68, 0
1, 6477, Note_on_c, 0, 72, 100
1, 6477, Note_on_c, 0, 69, 100
1, 6477, Note_on_c, 0, 64, 100
1, 6477, Note_on_c, 0, 71, 0
1, 6477, Note_on_c, 0, 80, 0
1, 6477, Note_on_c, 0, 72, 100
1, 6477, Note_on_c, 0, 81, 100
1, 6477, Note_on_c, 0, 71, 0
1, 6477, Note_on_c, 0, 68, 0
1, 6477, Note_on_c, 0, 52, 0
1, 6477, Note_on_c, 0, 72, 100
1, 6477, Note_on_c, 0, 69, 100
1, 6477, Note_on_c, 0, 64, 100
1, 6477, Note_on_c, 0, 57, 100
1, 6477, Note_on_c, 0, 28, 0
1, 6477, Note_on_c, 0, 40, 0
1, 6477, Note_on_c, 0, 45, 100
1, 6477, Note_on_c, 0, 33, 100
1, 6477, Note_on_c, 0, 35, 0
1, 6477, Note_on_c, 0, 35, 100
1, 6537, Note_on_c, 0, 44, 0
1, 6537, Note_on_c, 0, 56, 100
1, 6537, Note_on_c, 0, 80, 100
1, 6537, Note_on_c, 0, 71, 100
1, 6537, Note_on_c, 0, 76, 100
1, 6537, Note_on_c, 0, 59, 66
1, 6597, Note_on_c, 0, 52, 0
1, 6597, Note_on_c, 0, 40, 100
1, 6597, Note_on_c, 0, 72, 0
1, 6597, Note_on_c, 0, 74, 115
1, 6597, Note_on_c, 0, 59, 0
1, 6597, Note_on_c, 0, 64, 0
1, 6597, Note_on_c, 0, 71, 100
1, 6597, Note_on_c, 0, 76, 100
1, 6597, Note_on_c, 0, 71, 0
1, 6597, Note_on_c, 0, 76, 0
1, 6597, Note_on_c, 0, 76, 100
1, 6597, Note_on_c, 0, 71, 100
1, 6597, Note_on_c, 0, 28, 0
1, 6597, Note_on_c, 0, 40, 0
1, 6597, Note_on_c, 0, 40, 100
1, 6597, Note_on_c, 0, 28, 100
1, 6597, Note_on_c, 0, 36, 0
1, 6597, Note_on_c, 0, 36, 100
1, 6657, Note_on_c, 0, 88, 0
1, 6657, Note_on_c, 0, 76, 0
1, 6657, Note_on_c, 0, 80, 0
1, 6657, Note_on_c, 0, 83, 0
1, 6657, Note_on_c, 0, 88, 0
1, 6657, Note_on_c, 0, 76, 0
1, 6657, Note_on_c, 0, 80, 0
1, 6657, Note_on_c, 0, 83, 0
1, 6657, Note_on_c, 0, 28, 0
1, 6657, Note_on_c, 0, 40, 0
1, 6657, Note_on_c, 0, 35, 0
1, 6657, Note_on_c, 0, 35, 100
1, 6672, Note_on_c, 0, 38, 0
1, 6672, Note_on_c, 0, 40, 127
1, 6692, Note_on_c, 0, 77, 0
1, 6692, Note_on_c, 0, 79, 115
1, 6722, Note_on_c, 0, 69, 0
1, 6722, Note_on_c, 0, 74, 100
1, 6722, Note_on_c, 0, 38, 100
1, 6722, Note_on_c, 0, 42, 0
1, 6722, Note_on_c, 0, 44, 90
1, 6752, Note_on_c, 0, 69, 0
1, 6752, Note_on_c, 0, 74, 100
1, 6752, Note_on_c, 0, 38, 100
1, 6752, Note_on_c, 0, 42, 0
1, 6752, Note_on_c, 0, 44, 90
1, 6782, Note_on_c, 0, 69, 0
1, 6782, Note_on_c, 0, 74, 100
1, 6782, Note_on_c, 0, 38, 100
1, 6782, Note_on_c, 0, 42, 0
1, 6782, Note_on_c, 0, 44, 90
1, 6797, Note_on_c, 0, 40, 0
1, 6827, Note_on_c, 0, 45, 0
1, 6827, Note_on_c, 0, 44, 100
1, 6827, Note_on_c, 0, 33, 0
1, 6827, Note_on_c, 0, 45, 0
1, 6827, Note_on_c, 0, 44, 100
1, 6827, Note_on_c, 0, 32, 100
1, 6827, Note_on_c, 0, 35, 0
1, 6827, Note_on_c, 0, 35, 100
1, 6827, Note_on_c, 0, 38, 0
1, 6827, Note_on_c, 0, 38, 100
1, 6827, Note_on_c, 0, 44, 0
1, 6827, Note_on_c, 0, 44, 90
1, 6832, Note_on_c, 0, 77, 0
1, 6832, Note_on_c, 0, 79, 115
1, 6862, Note_on_c, 0, 68, 0
1, 6862, Note_on_c, 0, 71, 100
1, 6862, Note_on_c, 0, 38, 100
1, 6862, Note_on_c, 0, 44, 0
1, 6862, Note_on_c, 0, 44, 90
1, 6892, Note_on_c, 0, 45, 0
1, 6892, Note_on_c, 0, 41, 100
1, 6892, Note_on_c, 0, 74, 0
1, 6892, Note_on_c, 0, 72, 115
1, 6892, Note_on_c, 0, 35, 0
1, 6892, Note_on_c, 0, 35, 100
1, 6892, Note_on_c, 0, 44, 0
1, 6892, Note_on_c, 0, 44, 90
1, 6907, Note_on_c, 0, 38, 0
1, 6907, Note_on_c, 0, 40, 100
1, 6937, Note_on_c, 0, 36, 0
1, 6937, Note_on_c, 0, 48, 100
1, 6937, Note_on_c, 0, 76, 0
1, 6937, Note_on_c, 0, 72, 115
1, 6937, Note_on_c, 0, 44, 0
1, 6937, Note_on_c, 0, 44, 90
1, 6967, Note_on_c, 0, 41, 0
1, 6967, Note_on_c, 0, 44, 100
1, 6967, Note_on_c, 0, 72, 0
1, 6967, Note_on_c, 0, 71, 115
1, 6967, Note_on_c, 0, 81, 0
1, 6967, Note_on_c, 0, 72, 0
1, 6967, Note_on_c, 0, 57, 0
1, 6967, Note_on_c, 0, 68, 100
1, 6967, Note_on_c, 0, 64, 100
1, 6967, Note_on_c, 0, 56, 100
1, 6967, Note_on_c, 0, 69, 0
1, 6967, Note_on_c, 0, 68, 100
1, 6967, Note_on_c, 0, 33, 0
1, 6967, Note_on_c, 0, 45, 0
1, 6967, Note_on_c, 0, 44, 100
1, 6967, Note_on_c, 0, 32, 100
1, 6967, Note_on_c, 0, 35, 0
1, 6967, Note_on_c, 0, 35, 100
1, 6967, Note_on_c, 0, 38, 0
1, 6967, Note_on_c, 0, 44, 0
1, 6967, Note_on_c, 0, 42, 90
1, 6997, Note_on_c, 0, 76, 0
1, 6997, Note_on_c, 0, 81, 100
1, 6997, Note_on_c, 0, 38, 100
1, 6997, Note_on_c, 0, 42, 0
1, 6997, Note_on_c, 0, 44, 90
1, 7027, Note_on_c, 0, 40, 0
1, 7027, Note_on_c, 0, 52, 100
1, 7027, Note_on_c, 0, 38, 0
1, 7027, Note_on_c, 0, 44, 0
1, 7027, Note_on_c, 0, 44, 90
1, 7057, Note_on_c, 0, 48, 0
1, 7057, Note_on_c, 0, 36, 100
1, 7057, Note_on_c, 0, 35, 0
1, 7057, Note_on_c, 0, 35, 100
1, 7057, Note_on_c, 0, 38, 100
1, 7057, Note_on_c, 0, 44, 0
1, 7057, Note_on_c, 0, 42, 90
1, 7088, Note_on_c, 0, 40, 0
1, 7088, Note_on_c, 0, 52, 100
1, 7088, Note_on_c, 0, 76, 100
1, 7088, Note_on_c, 0, 71, 100
1, 7118, Note_on_c, 0, 40, 100
1, 7118, Note_on_c, 0, 42, 0
1, 7118, Note_on_c, 0, 44, 90
1, 7148, Note_on_c, 0, 52, 0
1, 7148, Note_on_c, 0, 40, 100
1, 7148, Note_on_c, 0, 72, 0
1, 7148, Note_on_c, 0, 74, 115
1, 7148, Note_on_c, 0, 35, 0
1, 7148, Note_on_c, 0, 35, 100
1, 7148, Note_on_c, 0, 38, 0
1, 7148, Note_on_c, 0, 44, 0
1, 7148, Note_on_c, 0, 42, 90
1, 7178, Note_on_c, 0, 40, 0
1, 7178, Note_on_c, 0, 52, 100
1, 7178, Note_on_c, 0, 76, 0
1, 7178, Note_on_c, 0, 64, 100
1, 7178, Note_on_c, 0, 28, 0
1, 7178, Note_on_c, 0, 40, 0
1, 7178, Note_on_c, 0, 40, 100
1, 7178, Note_on_c, 0, 28, 100
1, 7178, Note_on_c, 0, 35, 0
1, 7178, Note_on_c, 0, 35, 100
1, 7178, Note_on_c, 0, 44, 0
1, 7178, Note_on_c, 0, 44, 90
1, 7208, Note_on_c, 0, 52, 0
1, 7208, Note_on_c, 0, 45, 100
1, 7208, Note_on_c, 0, 76, 0
1, 7208, Note_on_c, 0, 72, 115
1, 7208, Note_on_c, 0, 76, 0
1, 7208, Note_on_c, 0, 71, 0
1, 7208, Note_on_c, 0, 52, 0
1, 7208, Note_on_c, 0, 69, 100
1, 7208, Note_on_c, 0, 64, 100
1, 7208, Note_on_c, 0, 57, 100
1, 7208, Note_on_c, 0, 64, 0
1, 7208, Note_on_c, 0, 69, 100
1, 7208, Note_on_c, 0, 28, 0
1, 7208, Note_on_c, 0, 40, 0
1, 7208, Note_on_c, 0, 45, 100
1, 7208, Note_on_c, 0, 33, 100
1, 7208, Note_on_c, 0, 35, 0
1, 7208, Note_on_c, 0, 35, 100
1, 7208, Note_on_c, 0, 44, 0
1, 7208, Note_on_c, 0, 42, 90
1, 7268, Note_on_c, 0, 88, 0
1, 7268, Note_on_c, 0, 76, 0
1, 7268, Note_on_c, 0, 80, 0
1, 7268, Note_on_c, 0, 83, 0
1, 7268, Note_on_c, 0, 88, 0
1, 7268, Note_on_c, 0, 76, 0
1, 7268, Note_on_c, 0, 80, 0
1, 7268, Note_on_c, 0, 83, 0
1, 7268, Note_on_c, 0, 28, 0
1, 7268, Note_on_c, 0, 40, 0
1, 7268, Note_on_c, 0, 35, 0
1, 7268, Note_on_c, 0, 35, 100
1, 7298, Note_on_c, 0, 33, 0
1, 7298, Note_on_c, 0, 45, 0
1, 7298, Note_on_c, 0, 45, 100
1, 7298, Note_on_c, 0, 33, 100
1, 7298, Note_on_c, 0, 76, 0
1, 7298, Note_on_c, 0, 72, 100
1, 7298, Note_on_c, 0, 64, 0
1, 7298, Note_on_c, 0, 60, 0
1, 7298, Note_on_c, 0, 60, 100
1, 7298, Note_on_c, 0, 35, 0
1, 7298, Note_on_c, 0, 35, 100
1, 7298, Note_on_c, 0, 44, 0
1, 7298, Note_on_c, 0, 42, 90
1, 7358, Note_on_c, 0, 71, 0
1, 7358, Note_on_c, 0, 68, 0
1, 7358, Note_on_c, 0, 72, 100
1, 7358, Note_on_c, 0, 69, 100
1, 7358, Note_on_c, 0, 64, 100
1, 7358, Note_on_c, 0, 71, 0
1, 7358, Note_on_c, 0, 80, 0
1, 7358, Note_on_c, 0, 72, 100
1, 7358, Note_on_c, 0, 81, 100
1, 7358, Note_on_c, 0, 71, 0
1, 7358, Note_on_c, 0, 68, 0
1, 7358, Note_on_c, 0, 52, 0
1, 7358, Note_on_c, 0, 72, 100
1, 7358, Note_on_c, 0, 69, 100
1, 7358, Note_on_c, 0, 64, 100
1, 7358, Note_on_c, 0, 57, 100
1, 7358, Note_on_c, 0, 28, 0
1, 7358, Note_on_c, 0, 40, 0
1, 7358, Note_on_c, 0, 45, 100
1, 7358, Note_on_c, 0, 33, 100
1, 7358, Note_on_c, 0, 35, 0
1, 7358, Note_on_c, 0, 35, 100
1, 7418, Note_on_c, 0, 44, 0
1, 7418, Note_on_c, 0, 56, 100
1, 7418, Note_on_c, 0, 80, 100
1, 7418, Note_on_c, 0, 71, 100
1, 7418, Note_on_c, 0, 76, 100
1, 7418, Note_on_c, 0, 59, 66
1, 7478, Note_on_c, 0, 52, 0
1, 7478, Note_on_c, 0, 40, 100
1, 7478, Note_on_c, 0, 72, 0
1, 7478, Note_on_c, 0, 74, 115
1, 7478, Note_on_c, 0, 59, 0
1, 7478, Note_on_c, 0, 64, 0
1, 7478, Note_on_c, 0, 71, 100
1, 7478, Note_on_c, 0, 76, 100
1, 7478, Note_on_c, 0, 71, 0
1, 7478, Note_on_c, 0, 76, 0
1, 7478, Note_on_c, 0, 76, 100
1, 7478, Note_on_c, 0, 71, 100
1, 7478, Note_on_c, 0, 28, 0
1, 7478, Note_on_c, 0, 40, 0
1, 7478, Note_on_c, 0, 40, 100
1, 7478, Note_on_c, 0, 28, 100
1, 7478, Note_on_c, 0, 36, 0
1, 7478, Note_on_c, 0, 36, 100
1, 7538, Note_on_c, 0, 88, 0
1, 7538, Note_on_c, 0, 76, 0
1, 7538, Note_on_c, 0, 80, 0
1, 7538, Note_on_c, 0, 83, 0
1, 7538, Note_on_c, 0, 88, 0
1, 7538, Note_on_c, 0, 76, 0
1, 7538, Note_on_c, 0, 80, 0
1, 7538, Note_on_c, 0, 83, 0
1, 7538, Note_on_c, 0, 28, 0
1, 7538, Note_on_c, 0, 40, 0
1, 7538, Note_on_c, 0, 35, 0
1, 7538, Note_on_c, 0, 35, 100
1, 7553, Note_on_c, 0, 38, 0
1, 7553, Note_on_c, 0, 40, 127
1, 7573, Note_on_c, 0, 77, 0
1, 7573, Note_on_c, 0, 79, 115
1, 7603, Note_on_c, 0, 69, 0
1, 7603, Note_on_c, 0, 74, 100
1, 7603, Note_on_c, 0, 38, 100
1, 7603, Note_on_c, 0, 42, 0
1, 7603, Note_on_c, 0, 44, 90
1, 7633, Note_on_c, 0, 69, 0
1, 7633, Note_on_c, 0, 74, 100
1, 7633, Note_on_c, 0, 38, 100
1, 7633, Note_on_c, 0, 42, 0
1, 7633, Note_on_c, 0, 44, 90
1, 7663, Note_on_c, 0, 69, 0
1, 7663, Note_on_c, 0, 74, 100
1, 7663, Note_on_c, 0, 38, 100
1, 7663, Note_on_c, 0, 42, 0
1, 7663, Note_on_c, 0, 44, 90
1, 7678, Note_on_c, 0, 40, 0
1, 7708, Note_on_c, 0, 45, 0
1, 7708, Note_on_c, 0, 44, 100
1, 7708, Note_on_c, 0, 33, 0
1, 7708, Note_on_c, 0, 45, 0
1, 7708, Note_on_c, 0, 44, 100
1, 7708, Note_on_c, 0, 32, 100
1, 7708, Note_on_c, 0, 35, 0
1, 7708, Note_on_c, 0, 35, 100
1, 7708, Note_on_c, 0, 38, 0
1, 7708, Note_on_c, 0, 38, 100
1, 7708, Note_on_c, 0, 44, 0
1, 7708, Note_on_c, 0, 44, 90
1, 7713, Note_on_c, 0, 77, 0
1, 7713, Note_on_c, 0, 79, 115
1, 7743, Note_on_c, 0, 68, 0
1, 7743, Note_on_c, 0, 71, 100
1, 7743, Note_on_c, 0, 38, 100
1, 7743, Note_on_c, 0, 44, 0
1, 7743, Note_on_c, 0, 44, 90
1, 7773, Note_on_c, 0, 45, 0
1, 7773, Note_on_c, 0, 41, 100
1, 7773, Note_on_c, 0, 74, 0
1, 7773, Note_on_c, 0, 72, 115
1, 7773, Note_on_c, 0, 35, 0
1, 7773, Note_on_c, 0, 35, 100
1, 7773, Note_on_c, 0, 44, 0
1, 7773, Note_on_c, 0, 44, 90
1, 7788, Note_on_c, 0, 38, 0
1, 7788, Note_on_c, 0, 40, 100
1, 7818, Note_on_c, 0, 36, 0
1, 7818, Note_on_c, 0, 48, 100
1, 7818, Note_on_c, 0, 76, 0
1, 7818, Note_on_c, 0, 72, 115
1, 7818, Note_on_c, 0, 44, 0
1, 7818, Note_on_c, 0, 44, 90
1, 7848, Note_on_c, 0, 41, 0
1, 7848, Note_on_c, 0, 44, 100
1, 7848, Note_on_c, 0, 72, 0
1, 7848, Note_on_c, 0, 71, 115
1, 7848, Note_on_c, 0, 81, 0
1, 7848, Note_on_c, 0, 72, 0
1, 7848, Note_on_c, 0, 57, 0
1, 7848, Note_on_c, 0, 68, 100
1, 7848, Note_on_c, 0, 64, 100
1, 7848, Note_on_c, 0, 56, 100
1, 7848, Note_on_c, 0, 69, 0
1, 7848, Note_on_c, 0, 68, 100
1, 7848, Note_on_c, 0, 33, 0
1, 7848, Note_on_c, 0, 45, 0
1, 7848, Note_on_c, 0, 44, 100
1, 7848, Note_on_c, 0, 32, 100
1, 7848, Note_on_c, 0, 35, 0
1, 7848, Note_on_c, 0, 35, 100
1, 7848, Note_on_c, 0, 38, 0
1, 7848, Note_on_c, 0, 44, 0
1, 7848, Note_on_c, 0, 42, 90
1, 7878, Note_on_c, 0, 76, 0
1, 7878, Note_on_c, 0, 81, 100
1, 7878, Note_on_c, 0, 38, 100
1, 7878, Note_on_c, 0, 42, 0
1, 7878, Note_on_c, 0, 44, 90
1, 7908, Note_on_c, 0, 40, 0
1, 7908, Note_on_c, 0, 52, 100
1, 7908, Note_on_c, 0, 38, 0
1, 7908, Note_on_c, 0, 44, 0
1, 7908, Note_on_c, 0, 44, 90
1, 7908, End_track
0, 0, End_of_file